<svg xmlns="http://www.w3.org/2000/svg" xmlns:xlink="http://www.w3.org/1999/xlink" width="500" zoomAndPan="magnify" viewBox="0 0 375 374.999991" height="500" preserveAspectRatio="xMidYMid meet" version="1.0"><defs><g/><clipPath id="6b43a782e3"><path d="M 307.214844 109.046875 L 322.214844 109.046875 L 322.214844 145.046875 L 307.214844 145.046875 Z M 307.214844 109.046875 " clip-rule="nonzero"/></clipPath><clipPath id="e84ca1448d"><path d="M 0 46.171875 L 168 46.171875 L 168 232.921875 L 0 232.921875 Z M 0 46.171875 " clip-rule="nonzero"/></clipPath><clipPath id="540a44a3f9"><rect x="0" width="31" y="0" height="48"/></clipPath><clipPath id="a0c67b0e3c"><rect x="0" width="50" y="0" height="78"/></clipPath><clipPath id="99a3743e22"><rect x="0" width="50" y="0" height="78"/></clipPath><clipPath id="bfe48241c4"><rect x="0" width="49" y="0" height="78"/></clipPath><clipPath id="a4ae9244c8"><rect x="0" width="234" y="0" height="64"/></clipPath></defs><g clip-path="url(#6b43a782e3)"><path fill="#ffffff" d="M 313.847656 144.648438 C 313.464844 144.460938 312.527344 143.941406 311.371094 142.433594 C 310.441406 141.222656 309.902344 140.066406 309.421875 138.847656 C 308.65625 136.90625 307.683594 134.445312 307.367188 130.941406 C 307.25 129.667969 307.082031 127.65625 307.527344 125.089844 C 307.980469 122.449219 308.855469 120.546875 309.847656 118.394531 C 310.894531 116.113281 311.878906 114.550781 312.21875 114.019531 C 313.902344 111.390625 316.0625 108.832031 316.433594 109.0625 C 316.671875 109.214844 315.796875 110.3125 315.535156 112.4375 C 315.328125 114.140625 315.628906 115.535156 316.011719 117.289062 C 316.214844 118.226562 316.433594 119.214844 316.960938 120.453125 C 317.3125 121.285156 317.738281 122.007812 318.59375 123.457031 C 319.585938 125.136719 319.6875 125.164062 320.28125 126.25 C 320.929688 127.4375 321.355469 128.210938 321.707031 129.308594 C 322.21875 130.90625 322.261719 132.214844 322.285156 133.050781 C 322.296875 133.484375 322.328125 135.34375 321.707031 137.691406 C 321.597656 138.097656 321.253906 139.320312 320.546875 140.800781 C 319.941406 142.054688 319.425781 143.109375 318.332031 144.070312 C 317.78125 144.554688 317.230469 145.023438 316.382812 145.175781 C 315.300781 145.367188 314.417969 144.929688 313.851562 144.648438 Z M 313.847656 144.648438 " fill-opacity="1" fill-rule="nonzero"/></g><g clip-path="url(#e84ca1448d)"><path fill="#ffffff" d="M 0.222656 84.105469 C 0.507812 83.550781 0.882812 83.605469 1.957031 82.917969 C 2.507812 82.5625 3.296875 81.722656 4.875 80.042969 C 5 79.910156 5.1875 79.660156 5.324219 79.300781 C 5.410156 79.058594 5.4375 78.855469 5.464844 78.605469 C 5.527344 78.121094 5.519531 77.746094 5.519531 77.710938 C 5.511719 77.203125 5.804688 74.996094 6.707031 72.558594 C 7.402344 70.703125 8.421875 69.488281 9.136719 68.648438 C 9.136719 68.648438 10.894531 66.566406 14.339844 64.335938 C 14.476562 64.246094 15.878906 63.34375 15.878906 63.34375 C 15.878906 63.34375 15.839844 61.53125 15.777344 60.273438 C 15.726562 59.210938 15.628906 58.386719 15.429688 56.808594 C 14.824219 51.78125 14.519531 49.261719 14.179688 48.429688 C 14.152344 48.367188 14.089844 48.21875 14.136719 48.179688 C 14.484375 47.921875 20.65625 54.59375 22.851562 57.789062 C 23.058594 58.09375 23.761719 59.136719 23.996094 59.03125 C 24.144531 58.960938 24.019531 58.433594 23.996094 58.289062 C 23.636719 56.558594 22.683594 46.867188 24.386719 46.199219 C 24.976562 45.964844 25.539062 46.921875 29.441406 51.003906 C 31.78125 53.449219 31.503906 53.019531 34.539062 56.210938 C 37.480469 59.28125 37.210938 59.121094 38.996094 60.914062 C 40.648438 62.574219 41.433594 63.265625 43.058594 65.023438 C 43.382812 65.371094 44.320312 66.398438 45.488281 67.800781 C 46.480469 68.996094 46.996094 69.613281 47.621094 70.523438 C 48.300781 71.523438 48.722656 72.292969 49.355469 73.445312 C 49.910156 74.453125 50.445312 75.445312 51.042969 76.808594 C 51.480469 77.828125 51.765625 78.648438 52.328125 80.273438 C 52.585938 81.015625 52.925781 82.007812 53.320312 83.292969 C 53.488281 83.835938 53.898438 85.238281 54.5625 87.902344 C 55.203125 90.5 55.042969 90.160156 55.605469 92.410156 C 56.347656 95.382812 56.488281 95.492188 57.089844 98.054688 C 57.175781 98.445312 57.363281 99.25 57.6875 100.332031 C 58.015625 101.457031 58.195312 102.0625 58.527344 102.804688 C 58.640625 103.074219 59.167969 104.222656 60.214844 105.527344 C 60.855469 106.339844 61.480469 106.894531 62.742188 108 C 63.730469 108.875 64.625 109.671875 65.910156 110.574219 C 66.589844 111.046875 66.554688 110.984375 69.132812 112.601562 C 69.894531 113.074219 70.859375 113.691406 71.859375 114.332031 C 73.410156 115.34375 74.402344 116.03125 75.324219 116.664062 C 79.804688 119.726562 79.753906 119.394531 82.011719 121.074219 C 83.707031 122.332031 83.359375 122.234375 86.96875 125.136719 C 89.976562 127.558594 89.941406 127.398438 91.628906 128.808594 C 93.851562 130.664062 95.378906 132.15625 97.96875 134.703125 C 100.425781 137.113281 101.648438 138.316406 103.023438 139.855469 C 105.613281 142.746094 107.328125 145.121094 109.460938 148.078125 C 110.542969 149.570312 111.898438 151.460938 113.570312 154.070312 C 115.085938 156.445312 117.015625 159.472656 119.015625 163.582031 C 120.5625 166.757812 121.460938 169.160156 122.480469 171.902344 C 123.882812 175.664062 125.167969 179.152344 126.195312 183.894531 C 126.6875 186.144531 126.972656 188.03125 127.339844 190.433594 C 127.910156 194.191406 128.195312 196.066406 128.277344 197.960938 C 128.507812 203.203125 127.554688 205.503906 128.570312 206.03125 C 129.367188 206.441406 130.867188 205.175781 133.820312 202.613281 C 136.695312 200.121094 138.257812 198.773438 139.910156 196.371094 C 141.375 194.234375 142.109375 192.46875 143.082031 190.074219 C 143.625 188.746094 144.6875 185.976562 145.511719 182.296875 C 146.296875 178.761719 146.5 176.039062 146.652344 173.921875 C 146.742188 172.644531 146.964844 168.910156 146.601562 164.007812 C 146.539062 163.207031 146.351562 160.828125 145.859375 157.714844 C 145.117188 153.042969 144.144531 149.5625 143.234375 146.363281 C 142.429688 143.542969 141.6875 141.292969 141.054688 139.378906 C 140.339844 137.210938 140.160156 136.800781 138.875 133.039062 C 137.921875 130.246094 137.332031 128.46875 136.5 125.960938 C 134.445312 119.753906 134.195312 118.824219 133.972656 117.484375 C 133.6875 115.796875 133.589844 114.449219 133.429688 112.082031 C 133.222656 109.1875 133.125 107.742188 133.277344 105.992188 C 133.492188 103.527344 134.054688 101.761719 134.757812 99.554688 C 135.609375 96.929688 136.3125 94.75 137.882812 92.167969 C 140.4375 87.980469 143.554688 85.578125 144.574219 84.839844 C 147.628906 82.605469 150.386719 81.660156 151.859375 81.167969 C 151.859375 81.167969 155.636719 79.910156 159.636719 79.925781 C 160.871094 79.925781 161.90625 80.058594 162.960938 80.570312 C 163.664062 80.910156 164.261719 81.363281 164.84375 81.8125 C 165.621094 82.410156 166.023438 82.710938 166.433594 83.25 C 167.074219 84.097656 167.28125 84.945312 167.425781 85.527344 C 167.523438 85.953125 167.773438 87.167969 167.476562 88.695312 C 167.324219 89.472656 167.128906 90.5 166.335938 91.472656 C 165.496094 92.507812 164.363281 93.015625 163.164062 93.554688 C 163.046875 93.605469 162.683594 93.769531 162.171875 93.945312 C 160.734375 94.464844 160.039062 94.457031 158.90625 94.742188 C 157.449219 95.097656 156.394531 95.652344 155.886719 95.929688 C 154.484375 96.679688 153.554688 97.492188 153.261719 97.757812 C 151.539062 99.320312 150.707031 100.972656 150.289062 101.824219 C 149.269531 103.894531 149.003906 105.660156 148.804688 107.027344 C 148.519531 109.027344 148.601562 110.511719 148.707031 112.574219 C 148.769531 113.753906 148.886719 115.742188 149.402344 118.269531 C 149.589844 119.199219 149.941406 120.699219 151.191406 124.261719 C 152.191406 127.113281 152.78125 128.46875 153.867188 131.246094 C 154.984375 134.101562 156.15625 137.09375 157.289062 140.558594 C 158.519531 144.328125 159.234375 147.230469 159.859375 149.820312 C 160.871094 153.945312 161.566406 156.8125 162.09375 160.820312 C 162.636719 165.027344 162.699219 168.25 162.734375 170.582031 C 162.78125 173.332031 162.824219 177.386719 162.136719 182.617188 C 161.898438 184.449219 161.601562 186.683594 160.851562 189.601562 C 160.585938 190.65625 159.789062 193.609375 158.226562 197.28125 C 156.796875 200.640625 155.40625 203.003906 154.21875 205.003906 C 152.992188 207.066406 151.949219 208.808594 150.253906 210.953125 C 148.777344 212.820312 147.554688 214.042969 146.039062 215.558594 C 144.9375 216.667969 142.769531 218.765625 139.742188 221.203125 C 137.609375 222.925781 136.429688 223.875 134.6875 224.917969 C 132.125 226.453125 131.597656 226.257812 127.75 227.992188 C 124.480469 229.464844 117.648438 232.472656 114.972656 232.542969 C 114.160156 232.570312 113.210938 232.582031 113.210938 232.582031 C 112.28125 232.589844 111.945312 232.582031 110.871094 232.582031 C 109.523438 232.582031 109.445312 232.589844 107.792969 232.597656 C 106.960938 232.597656 106.390625 232.597656 105.308594 232.597656 C 103.238281 232.597656 102.238281 232.582031 101.203125 232.570312 C 98.976562 232.5625 98.441406 232.582031 95.65625 232.589844 C 94.433594 232.589844 94.496094 232.589844 89.316406 232.582031 C 85.003906 232.570312 82.804688 232.5625 80.929688 232.5625 C 79.566406 232.5625 79.0625 232.5625 75.554688 232.570312 C 73.4375 232.570312 71.644531 232.570312 70.734375 232.570312 C 63.195312 232.570312 61.765625 232.464844 55.078125 232.480469 C 55.203125 232.480469 53.910156 232.480469 51.3125 232.480469 C 45.953125 232.480469 44.238281 232.480469 44.230469 232.332031 C 44.21875 232.179688 45.890625 231.894531 45.910156 231.964844 C 45.925781 232.019531 44.828125 232.652344 44.230469 232.332031 C 43.007812 231.667969 43.78125 226.839844 45.863281 223.214844 C 46.140625 222.730469 47.507812 220.410156 50.175781 218.4375 C 50.585938 218.132812 52.425781 216.773438 54.113281 216.445312 C 54.589844 216.355469 55.355469 216.300781 56.902344 216.210938 C 57.320312 216.1875 58.382812 216.125 59.8125 216.097656 C 60.972656 216.070312 61.855469 216.078125 62.464844 216.085938 C 64.917969 216.113281 66.375 216.125 68.5 216.210938 C 72.597656 216.375 73.832031 216.4375 73.984375 215.960938 C 74.0625 215.710938 73.617188 215.273438 72.734375 214.410156 C 71.964844 213.660156 71.179688 213.035156 69.894531 212.035156 C 69.644531 211.835938 69.535156 211.757812 69.445312 211.683594 C 69.109375 211.425781 67.429688 209.71875 66.410156 208.765625 C 66.167969 208.542969 66.125 208.507812 65.917969 208.308594 C 65.25 207.667969 64.804688 207.128906 64.644531 206.941406 C 62.972656 204.960938 61.910156 203.980469 60.597656 202.21875 C 60.203125 201.683594 58.632812 199.53125 57.25 196.363281 C 55.964844 193.40625 55.355469 190.761719 55.050781 188.871094 C 54.875 187.78125 54.800781 186.976562 54.738281 186.226562 C 54.542969 183.957031 54.152344 179.628906 55.230469 174.375 C 55.5625 172.777344 55.839844 171.4375 56.347656 169.949219 C 56.417969 169.734375 56.640625 169.109375 56.964844 168.347656 C 57.605469 166.820312 59.015625 163.507812 62.078125 160.375 C 63.304688 159.125 64.382812 158.3125 64.820312 158 C 65.792969 157.292969 66.929688 156.605469 68.671875 155.800781 C 70.820312 154.800781 73.324219 153.640625 76.734375 153.042969 C 80.554688 152.375 83.519531 152.765625 86.394531 153.140625 C 87.851562 153.328125 90.699219 153.785156 94.226562 154.925781 C 100.378906 156.917969 103.628906 159.390625 103.988281 158.890625 C 104.328125 158.410156 101.648438 155.800781 99.128906 154.035156 C 97.539062 152.917969 96.171875 152.238281 95.066406 151.703125 C 94.335938 151.347656 92.164062 150.320312 89.121094 149.425781 C 87.664062 149 85.34375 148.328125 82.179688 148.042969 C 81.046875 147.933594 78.867188 147.800781 76.136719 148.042969 C 73.761719 148.257812 71.949219 148.675781 71.136719 148.882812 C 70.027344 149.160156 68.007812 149.675781 65.570312 150.847656 C 64.542969 151.335938 62.203125 152.535156 59.640625 154.675781 C 56.988281 156.902344 55.320312 159.117188 54.488281 160.320312 C 54 161.035156 52.238281 163.667969 50.773438 167.945312 C 50.023438 170.152344 49.613281 172.464844 48.847656 177.011719 C 47.097656 187.296875 46.890625 188.628906 46.265625 191.871094 C 45.683594 194.914062 45.257812 197.164062 44.53125 200.289062 C 43.710938 203.855469 43.460938 204.425781 42.84375 207.46875 C 42.28125 210.246094 42.210938 211.15625 41.605469 213.765625 C 40.863281 216.972656 40.738281 216.625 40.265625 218.820312 C 39.066406 224.363281 40.941406 230.875 39.605469 231.839844 C 39.585938 231.855469 39.53125 231.894531 39.460938 231.9375 C 39.292969 232.042969 38.503906 232.527344 37.113281 232.589844 C 37.085938 232.589844 36.863281 232.589844 36.414062 232.589844 C 35.578125 232.589844 34.960938 232.582031 34.78125 232.582031 C 34.515625 232.582031 33.640625 232.582031 31.898438 232.582031 C 30.246094 232.582031 29.871094 232.582031 29.164062 232.582031 C 28.871094 232.582031 28.65625 232.582031 28.261719 232.582031 C 27.273438 232.582031 26.546875 232.582031 26.335938 232.582031 C 24.878906 232.582031 22.601562 232.582031 20.894531 232.5625 C 18.039062 232.527344 16.609375 232.507812 16.351562 232.304688 C 14.378906 230.722656 15.761719 225.695312 17.128906 222.988281 C 17.304688 222.632812 18.46875 220.382812 20.644531 218.773438 C 21.40625 218.210938 22.332031 217.550781 23.566406 217.4375 C 24.28125 217.375 24.886719 217.382812 24.886719 217.382812 C 25.996094 217.382812 26.726562 217.515625 26.90625 217.1875 C 26.933594 217.132812 26.941406 217.035156 26.949219 216.828125 C 26.96875 216.445312 26.90625 216.160156 26.886719 216.097656 C 26.871094 216.015625 26.816406 215.246094 26.71875 213.722656 C 26.46875 210.03125 26.316406 208.167969 26.34375 206.835938 C 26.378906 204.703125 26.246094 205.183594 25.546875 197.71875 C 25.074219 192.636719 25.296875 193.34375 24.753906 186.921875 C 24.34375 182.027344 24.191406 181.296875 23.707031 175.527344 C 23.394531 171.6875 23.234375 169.769531 23.21875 169.035156 C 23.058594 163.5625 23.558594 158.382812 22.074219 155.410156 C 21.984375 155.230469 21.558594 154.390625 20.984375 153.175781 C 20.71875 152.613281 20.15625 151.410156 19.644531 150.203125 C 19.117188 148.945312 18.707031 147.695312 17.914062 145.246094 C 17.109375 142.792969 16.707031 141.558594 16.574219 140.890625 C 16.34375 139.730469 16.269531 138.898438 15.832031 136.628906 C 15.652344 135.730469 15.519531 135.101562 15.484375 134.941406 C 14.699219 131.226562 15.546875 123.046875 15.679688 121.664062 C 16.40625 114.484375 15.761719 115.457031 16.519531 108.832031 C 16.941406 105.171875 17.761719 99.519531 17.761719 99.519531 C 17.761719 99.519531 15.664062 99.367188 13.753906 99.269531 C 10.449219 99.109375 10.277344 99.242188 9.492188 98.921875 C 8.4375 98.492188 7.761719 97.847656 6.867188 96.992188 C 5.902344 96.070312 5.332031 95.257812 4.636719 94.269531 C 3.886719 93.195312 3.992188 93.195312 2.109375 89.953125 C 1.507812 88.929688 0.839844 87.792969 0.320312 86.140625 C 0.0351562 85.230469 -0.0703125 84.585938 0.222656 84.007812 Z M 0.222656 84.105469 " fill-opacity="1" fill-rule="nonzero"/></g><g transform="matrix(1, 0, 0, 1, 325, 141)"><g clip-path="url(#540a44a3f9)"><g fill="#ffffff" fill-opacity="1"><g transform="translate(1.906297, 35.37956)"><g><path d="M 0.6875 -5.671875 C 1.425781 -6.578125 2.140625 -7.523438 2.828125 -8.515625 C 3.523438 -9.503906 4.128906 -10.507812 4.640625 -11.53125 C 5.234375 -10.582031 5.972656 -9.703125 6.859375 -8.890625 C 7.753906 -8.085938 8.738281 -7.445312 9.8125 -6.96875 C 10.882812 -6.5 12.007812 -6.265625 13.1875 -6.265625 C 14.039062 -6.265625 14.84375 -6.375 15.59375 -6.59375 C 16.34375 -6.8125 16.953125 -7.160156 17.421875 -7.640625 C 17.898438 -8.128906 18.140625 -8.765625 18.140625 -9.546875 C 18.140625 -10.265625 17.832031 -10.851562 17.21875 -11.3125 C 16.601562 -11.78125 15.800781 -12.175781 14.8125 -12.5 C 13.820312 -12.820312 12.734375 -13.144531 11.546875 -13.46875 C 10.359375 -13.789062 9.160156 -14.179688 7.953125 -14.640625 C 6.753906 -15.097656 5.660156 -15.695312 4.671875 -16.4375 C 3.679688 -17.175781 2.878906 -18.125 2.265625 -19.28125 C 1.648438 -20.4375 1.34375 -21.851562 1.34375 -23.53125 C 1.34375 -25.164062 1.726562 -26.625 2.5 -27.90625 C 3.28125 -29.1875 4.320312 -30.273438 5.625 -31.171875 C 6.925781 -32.078125 8.382812 -32.757812 10 -33.21875 C 11.613281 -33.6875 13.273438 -33.921875 14.984375 -33.921875 C 17.203125 -33.921875 19.066406 -33.679688 20.578125 -33.203125 C 22.085938 -32.734375 23.34375 -32.160156 24.34375 -31.484375 C 25.351562 -30.816406 26.203125 -30.1875 26.890625 -29.59375 C 26.316406 -28.6875 25.675781 -27.734375 24.96875 -26.734375 C 24.269531 -25.734375 23.617188 -24.65625 23.015625 -23.5 C 22.023438 -24.394531 20.859375 -25.179688 19.515625 -25.859375 C 18.179688 -26.546875 16.726562 -26.890625 15.15625 -26.890625 C 14.414062 -26.890625 13.664062 -26.785156 12.90625 -26.578125 C 12.144531 -26.367188 11.503906 -26.035156 10.984375 -25.578125 C 10.460938 -25.117188 10.203125 -24.503906 10.203125 -23.734375 C 10.203125 -22.953125 10.492188 -22.320312 11.078125 -21.84375 C 11.671875 -21.375 12.457031 -20.988281 13.4375 -20.6875 C 14.425781 -20.394531 15.507812 -20.097656 16.6875 -19.796875 C 17.863281 -19.492188 19.03125 -19.132812 20.1875 -18.71875 C 21.351562 -18.300781 22.425781 -17.75 23.40625 -17.0625 C 24.394531 -16.375 25.179688 -15.476562 25.765625 -14.375 C 26.359375 -13.28125 26.65625 -11.890625 26.65625 -10.203125 C 26.65625 -7.941406 26.050781 -6.007812 24.84375 -4.40625 C 23.644531 -2.800781 22.015625 -1.578125 19.953125 -0.734375 C 17.890625 0.0976562 15.566406 0.515625 12.984375 0.515625 C 11.523438 0.515625 10.109375 0.335938 8.734375 -0.015625 C 7.359375 -0.367188 6.101562 -0.847656 4.96875 -1.453125 C 3.84375 -2.054688 2.90625 -2.722656 2.15625 -3.453125 C 1.40625 -4.191406 0.914062 -4.929688 0.6875 -5.671875 Z M 0.6875 -5.671875 "/></g></g></g></g></g><g transform="matrix(1, 0, 0, 1, 167, 143)"><g clip-path="url(#a0c67b0e3c)"><g fill="#ffffff" fill-opacity="1"><g transform="translate(1.197403, 57.968667)"><g><path d="M 18.171875 0 L 1.15625 0 C 1.8125 -0.570312 2.3125 -1.550781 2.65625 -2.9375 C 3 -4.320312 3.171875 -5.726562 3.171875 -7.15625 L 3.171875 -48.5 C 3.171875 -49.957031 3 -51.367188 2.65625 -52.734375 C 2.3125 -54.097656 1.8125 -55.070312 1.15625 -55.65625 L 18.171875 -55.65625 C 17.515625 -55.070312 17.007812 -54.085938 16.65625 -52.703125 C 16.3125 -51.328125 16.140625 -49.90625 16.140625 -48.4375 L 16.140625 -33.5 L 31.265625 -33.5 L 31.265625 -48.5 C 31.265625 -49.957031 31.085938 -51.367188 30.734375 -52.734375 C 30.390625 -54.097656 29.890625 -55.070312 29.234375 -55.65625 L 46.25 -55.65625 C 45.59375 -55.070312 45.09375 -54.085938 44.75 -52.703125 C 44.40625 -51.328125 44.234375 -49.90625 44.234375 -48.4375 L 44.234375 -7.203125 C 44.234375 -5.785156 44.40625 -4.375 44.75 -2.96875 C 45.09375 -1.5625 45.59375 -0.570312 46.25 0 L 29.234375 0 C 29.890625 -0.570312 30.390625 -1.550781 30.734375 -2.9375 C 31.085938 -4.320312 31.265625 -5.726562 31.265625 -7.15625 L 31.265625 -23.125 L 16.140625 -23.125 L 16.140625 -7.203125 C 16.140625 -5.785156 16.3125 -4.375 16.65625 -2.96875 C 17.007812 -1.5625 17.515625 -0.570312 18.171875 0 Z M 18.171875 0 "/></g></g></g></g></g><g transform="matrix(1, 0, 0, 1, 213, 143)"><g clip-path="url(#99a3743e22)"><g fill="#ffffff" fill-opacity="1"><g transform="translate(1.045562, 57.968667)"><g><path d="M 6.0625 0 C 5.132812 -2.726562 4.375 -5.289062 3.78125 -7.6875 C 3.1875 -10.09375 2.742188 -12.566406 2.453125 -15.109375 C 2.160156 -17.648438 2.015625 -20.476562 2.015625 -23.59375 C 2.015625 -26.738281 2.414062 -29.894531 3.21875 -33.0625 C 4.03125 -36.238281 5.234375 -39.226562 6.828125 -42.03125 C 8.429688 -44.84375 10.394531 -47.332031 12.71875 -49.5 C 15.039062 -51.675781 17.738281 -53.390625 20.8125 -54.640625 C 23.894531 -55.890625 27.300781 -56.515625 31.03125 -56.515625 C 32.832031 -56.515625 34.597656 -56.3125 36.328125 -55.90625 C 38.054688 -55.507812 39.59375 -54.925781 40.9375 -54.15625 C 42.289062 -53.382812 43.234375 -52.476562 43.765625 -51.4375 L 43.765625 -7.203125 C 43.765625 -5.785156 43.9375 -4.375 44.28125 -2.96875 C 44.632812 -1.5625 45.140625 -0.570312 45.796875 0 L 28.78125 0 C 29.4375 -0.570312 29.9375 -1.550781 30.28125 -2.9375 C 30.625 -4.320312 30.796875 -5.726562 30.796875 -7.15625 L 30.796875 -16.609375 L 15.34375 -16.609375 C 15.757812 -13.335938 16.523438 -10.347656 17.640625 -7.640625 C 18.753906 -4.929688 20.21875 -2.382812 22.03125 0 Z M 15.390625 -27.5625 L 30.796875 -27.5625 L 30.859375 -44.640625 C 28.316406 -44.640625 26.140625 -44.117188 24.328125 -43.078125 C 22.523438 -42.046875 21.007812 -40.671875 19.78125 -38.953125 C 18.550781 -37.242188 17.585938 -35.398438 16.890625 -33.421875 C 16.203125 -31.441406 15.703125 -29.488281 15.390625 -27.5625 Z M 15.390625 -27.5625 "/></g></g></g></g></g><g transform="matrix(1, 0, 0, 1, 263, 143)"><g clip-path="url(#bfe48241c4)"><g fill="#ffffff" fill-opacity="1"><g transform="translate(0.797561, 57.968667)"><g><path d="M 1.15625 0 C 1.8125 -0.570312 2.3125 -1.5625 2.65625 -2.96875 C 3 -4.375 3.171875 -5.785156 3.171875 -7.203125 L 3.171875 -48.4375 C 3.171875 -49.90625 3 -51.328125 2.65625 -52.703125 C 2.3125 -54.085938 1.8125 -55.070312 1.15625 -55.65625 L 20.125 -55.65625 C 24.082031 -55.65625 27.609375 -54.953125 30.703125 -53.546875 C 33.804688 -52.140625 36.429688 -50.175781 38.578125 -47.65625 C 40.734375 -45.144531 42.378906 -42.195312 43.515625 -38.8125 C 44.648438 -35.425781 45.21875 -31.753906 45.21875 -27.796875 C 45.21875 -23.878906 44.648438 -20.226562 43.515625 -16.84375 C 42.378906 -13.457031 40.734375 -10.503906 38.578125 -7.984375 C 36.429688 -5.460938 33.804688 -3.5 30.703125 -2.09375 C 27.609375 -0.695312 24.082031 0 20.125 0 Z M 16.140625 -10.953125 L 21.34375 -10.953125 C 23.300781 -10.953125 25.101562 -11.632812 26.75 -13 C 28.40625 -14.363281 29.734375 -16.304688 30.734375 -18.828125 C 31.734375 -21.347656 32.234375 -24.335938 32.234375 -27.796875 C 32.234375 -31.296875 31.734375 -34.300781 30.734375 -36.8125 C 29.734375 -39.332031 28.40625 -41.273438 26.75 -42.640625 C 25.101562 -44.015625 23.300781 -44.703125 21.34375 -44.703125 L 16.140625 -44.703125 Z M 16.140625 -10.953125 "/></g></g></g></g></g><g transform="matrix(1, 0, 0, 1, 132, 205)"><g clip-path="url(#a4ae9244c8)"><g fill="#ffffff" fill-opacity="1"><g transform="translate(2.156058, 47.506433)"><g><path d="M 23.65625 0.6875 C 20.3125 0.6875 17.285156 0.0859375 14.578125 -1.109375 C 11.867188 -2.304688 9.546875 -3.957031 7.609375 -6.0625 C 5.671875 -8.164062 4.1875 -10.601562 3.15625 -13.375 C 2.125 -16.144531 1.609375 -19.113281 1.609375 -22.28125 C 1.609375 -25.445312 2.125 -28.410156 3.15625 -31.171875 C 4.1875 -33.941406 5.671875 -36.378906 7.609375 -38.484375 C 9.546875 -40.597656 11.867188 -42.242188 14.578125 -43.421875 C 17.285156 -44.609375 20.3125 -45.203125 23.65625 -45.203125 C 26.945312 -45.203125 29.976562 -44.738281 32.75 -43.8125 C 35.519531 -42.894531 37.796875 -41.453125 39.578125 -39.484375 C 39.171875 -38.523438 38.789062 -37.539062 38.4375 -36.53125 C 38.09375 -35.519531 37.78125 -34.582031 37.5 -33.71875 C 37.21875 -32.851562 36.992188 -32.148438 36.828125 -31.609375 C 36.660156 -31.078125 36.578125 -30.8125 36.578125 -30.8125 C 36.578125 -30.8125 36.367188 -31.09375 35.953125 -31.65625 C 35.535156 -32.226562 34.875 -32.875 33.96875 -33.59375 C 33.0625 -34.320312 31.898438 -34.96875 30.484375 -35.53125 C 29.066406 -36.101562 27.363281 -36.390625 25.375 -36.390625 C 23 -36.390625 20.796875 -35.863281 18.765625 -34.8125 C 16.742188 -33.769531 15.109375 -32.203125 13.859375 -30.109375 C 12.617188 -28.023438 12 -25.398438 12 -22.234375 C 12 -19.097656 12.617188 -16.488281 13.859375 -14.40625 C 15.109375 -12.332031 16.742188 -10.773438 18.765625 -9.734375 C 20.796875 -8.691406 23 -8.171875 25.375 -8.171875 C 27.363281 -8.171875 29.066406 -8.453125 30.484375 -9.015625 C 31.898438 -9.585938 33.0625 -10.234375 33.96875 -10.953125 C 34.875 -11.671875 35.535156 -12.316406 35.953125 -12.890625 C 36.367188 -13.460938 36.578125 -13.75 36.578125 -13.75 C 36.578125 -13.75 36.660156 -13.476562 36.828125 -12.9375 C 36.992188 -12.394531 37.21875 -11.691406 37.5 -10.828125 C 37.78125 -9.972656 38.09375 -9.035156 38.4375 -8.015625 C 38.789062 -7.003906 39.171875 -6.023438 39.578125 -5.078125 C 37.796875 -3.109375 35.519531 -1.65625 32.75 -0.71875 C 29.976562 0.21875 26.945312 0.6875 23.65625 0.6875 Z M 23.65625 0.6875 "/></g></g></g><g fill="#ffffff" fill-opacity="1"><g transform="translate(42.373204, 47.506433)"><g><path d="M 4.84375 0 C 4.101562 -2.1875 3.492188 -4.238281 3.015625 -6.15625 C 2.546875 -8.082031 2.191406 -10.054688 1.953125 -12.078125 C 1.722656 -14.109375 1.609375 -16.367188 1.609375 -18.859375 C 1.609375 -21.378906 1.929688 -23.910156 2.578125 -26.453125 C 3.222656 -28.992188 4.179688 -31.382812 5.453125 -33.625 C 6.734375 -35.875 8.304688 -37.863281 10.171875 -39.59375 C 12.035156 -41.332031 14.195312 -42.703125 16.65625 -43.703125 C 19.113281 -44.703125 21.832031 -45.203125 24.8125 -45.203125 C 26.257812 -45.203125 27.675781 -45.039062 29.0625 -44.71875 C 30.445312 -44.394531 31.675781 -43.925781 32.75 -43.3125 C 33.820312 -42.695312 34.578125 -41.972656 35.015625 -41.140625 L 35.015625 -5.765625 C 35.015625 -4.628906 35.148438 -3.5 35.421875 -2.375 C 35.703125 -1.25 36.101562 -0.457031 36.625 0 L 23.015625 0 C 23.535156 -0.457031 23.929688 -1.238281 24.203125 -2.34375 C 24.484375 -3.457031 24.625 -4.582031 24.625 -5.71875 L 24.625 -13.28125 L 12.265625 -13.28125 C 12.609375 -10.664062 13.222656 -8.273438 14.109375 -6.109375 C 15.003906 -3.941406 16.175781 -1.90625 17.625 0 Z M 12.3125 -22.046875 L 24.625 -22.046875 L 24.671875 -35.703125 C 22.640625 -35.703125 20.898438 -35.285156 19.453125 -34.453125 C 18.015625 -33.617188 16.800781 -32.519531 15.8125 -31.15625 C 14.832031 -29.789062 14.066406 -28.316406 13.515625 -26.734375 C 12.960938 -25.148438 12.5625 -23.585938 12.3125 -22.046875 Z M 12.3125 -22.046875 "/></g></g></g><g fill="#ffffff" fill-opacity="1"><g transform="translate(81.351061, 47.506433)"><g><path d="M 0.921875 -44.515625 L 12.921875 -44.515625 L 25.46875 -21.078125 L 25.46875 -38.75 C 25.46875 -39.914062 25.328125 -41.050781 25.046875 -42.15625 C 24.765625 -43.257812 24.363281 -44.046875 23.84375 -44.515625 L 37.453125 -44.515625 C 36.929688 -44.046875 36.53125 -43.265625 36.25 -42.171875 C 35.976562 -41.085938 35.84375 -39.960938 35.84375 -38.796875 L 35.84375 -5.71875 C 35.84375 -4.582031 35.976562 -3.457031 36.25 -2.34375 C 36.53125 -1.238281 36.929688 -0.457031 37.453125 0 L 25.46875 0 L 12.921875 -23.4375 L 12.921875 -5.765625 C 12.921875 -4.628906 13.054688 -3.5 13.328125 -2.375 C 13.609375 -1.25 14.007812 -0.457031 14.53125 0 L 0.921875 0 C 1.441406 -0.457031 1.835938 -1.238281 2.109375 -2.34375 C 2.390625 -3.457031 2.53125 -4.582031 2.53125 -5.71875 L 2.53125 -38.796875 C 2.53125 -39.960938 2.390625 -41.085938 2.109375 -42.171875 C 1.835938 -43.265625 1.441406 -44.046875 0.921875 -44.515625 Z M 0.921875 -44.515625 "/></g></g></g><g fill="#ffffff" fill-opacity="1"><g transform="translate(120.698632, 47.506433)"><g><path d="M 0.921875 0 C 1.441406 -0.457031 1.835938 -1.25 2.109375 -2.375 C 2.390625 -3.5 2.53125 -4.628906 2.53125 -5.765625 L 2.53125 -38.75 C 2.53125 -39.914062 2.390625 -41.050781 2.109375 -42.15625 C 1.835938 -43.257812 1.441406 -44.046875 0.921875 -44.515625 L 16.09375 -44.515625 C 19.257812 -44.515625 22.082031 -43.953125 24.5625 -42.828125 C 27.039062 -41.703125 29.140625 -40.128906 30.859375 -38.109375 C 32.578125 -36.097656 33.890625 -33.738281 34.796875 -31.03125 C 35.703125 -28.332031 36.15625 -25.398438 36.15625 -22.234375 C 36.15625 -19.097656 35.703125 -16.175781 34.796875 -13.46875 C 33.890625 -10.757812 32.578125 -8.394531 30.859375 -6.375 C 29.140625 -4.363281 27.039062 -2.796875 24.5625 -1.671875 C 22.082031 -0.554688 19.257812 0 16.09375 0 Z M 12.921875 -8.765625 L 17.0625 -8.765625 C 18.632812 -8.765625 20.082031 -9.304688 21.40625 -10.390625 C 22.726562 -11.484375 23.785156 -13.035156 24.578125 -15.046875 C 25.378906 -17.066406 25.78125 -19.460938 25.78125 -22.234375 C 25.78125 -25.023438 25.378906 -27.425781 24.578125 -29.4375 C 23.785156 -31.457031 22.726562 -33.015625 21.40625 -34.109375 C 20.082031 -35.203125 18.632812 -35.75 17.0625 -35.75 L 12.921875 -35.75 Z M 12.921875 -8.765625 "/></g></g></g><g fill="#ffffff" fill-opacity="1"><g transform="translate(159.811689, 47.506433)"><g><path d="M 0.921875 0 C 1.441406 -0.457031 1.835938 -1.25 2.109375 -2.375 C 2.390625 -3.5 2.53125 -4.628906 2.53125 -5.765625 L 2.53125 -38.75 C 2.53125 -39.914062 2.390625 -41.050781 2.109375 -42.15625 C 1.835938 -43.257812 1.441406 -44.046875 0.921875 -44.515625 L 14.53125 -44.515625 C 14.007812 -44.046875 13.609375 -43.265625 13.328125 -42.171875 C 13.054688 -41.085938 12.921875 -39.960938 12.921875 -38.796875 L 12.921875 -8.765625 L 24.953125 -8.765625 C 25.722656 -8.765625 26.582031 -8.832031 27.53125 -8.96875 C 28.488281 -9.101562 29.453125 -9.351562 30.421875 -9.71875 C 31.390625 -10.09375 32.242188 -10.632812 32.984375 -11.34375 L 32.984375 0 Z M 0.921875 0 "/></g></g></g><g fill="#ffffff" fill-opacity="1"><g transform="translate(193.495723, 47.506433)"><g><path d="M 23.65625 0.6875 C 20.3125 0.6875 17.285156 0.0859375 14.578125 -1.109375 C 11.867188 -2.304688 9.546875 -3.957031 7.609375 -6.0625 C 5.671875 -8.164062 4.1875 -10.601562 3.15625 -13.375 C 2.125 -16.144531 1.609375 -19.113281 1.609375 -22.28125 C 1.609375 -25.445312 2.125 -28.410156 3.15625 -31.171875 C 4.1875 -33.941406 5.671875 -36.378906 7.609375 -38.484375 C 9.546875 -40.597656 11.867188 -42.242188 14.578125 -43.421875 C 17.285156 -44.609375 20.3125 -45.203125 23.65625 -45.203125 C 26.945312 -45.203125 29.976562 -44.738281 32.75 -43.8125 C 35.519531 -42.894531 37.796875 -41.453125 39.578125 -39.484375 C 39.171875 -38.523438 38.789062 -37.539062 38.4375 -36.53125 C 38.09375 -35.519531 37.78125 -34.582031 37.5 -33.71875 C 37.21875 -32.851562 36.992188 -32.148438 36.828125 -31.609375 C 36.660156 -31.078125 36.578125 -30.8125 36.578125 -30.8125 C 36.578125 -30.8125 36.367188 -31.09375 35.953125 -31.65625 C 35.535156 -32.226562 34.875 -32.875 33.96875 -33.59375 C 33.0625 -34.320312 31.898438 -34.96875 30.484375 -35.53125 C 29.066406 -36.101562 27.363281 -36.390625 25.375 -36.390625 C 23 -36.390625 20.796875 -35.863281 18.765625 -34.8125 C 16.742188 -33.769531 15.109375 -32.203125 13.859375 -30.109375 C 12.617188 -28.023438 12 -25.398438 12 -22.234375 C 12 -20.878906 12.117188 -19.625 12.359375 -18.46875 C 12.609375 -17.320312 12.960938 -16.269531 13.421875 -15.3125 C 13.265625 -17.894531 13.675781 -20.222656 14.65625 -22.296875 C 15.644531 -24.378906 17.066406 -26.035156 18.921875 -27.265625 C 20.785156 -28.492188 22.9375 -29.109375 25.375 -29.109375 C 26.320312 -29.109375 27.265625 -28.988281 28.203125 -28.75 C 29.140625 -28.519531 29.96875 -28.207031 30.6875 -27.8125 C 31.414062 -27.414062 31.90625 -26.984375 32.15625 -26.515625 L 32.15625 -16.328125 C 31.226562 -17.128906 29.929688 -17.851562 28.265625 -18.5 C 26.609375 -19.144531 24.875 -19.46875 23.0625 -19.46875 C 21.21875 -19.46875 19.554688 -19.226562 18.078125 -18.75 C 16.597656 -18.269531 15.539062 -17.546875 14.90625 -16.578125 C 14.28125 -15.609375 14.289062 -14.375 14.9375 -12.875 C 16.195312 -11.300781 17.734375 -10.125 19.546875 -9.34375 C 21.367188 -8.5625 23.3125 -8.171875 25.375 -8.171875 C 27.363281 -8.171875 29.066406 -8.453125 30.484375 -9.015625 C 31.898438 -9.585938 33.0625 -10.234375 33.96875 -10.953125 C 34.875 -11.671875 35.535156 -12.316406 35.953125 -12.890625 C 36.367188 -13.460938 36.578125 -13.75 36.578125 -13.75 C 36.578125 -13.75 36.660156 -13.476562 36.828125 -12.9375 C 36.992188 -12.394531 37.21875 -11.691406 37.5 -10.828125 C 37.78125 -9.972656 38.09375 -9.035156 38.4375 -8.015625 C 38.789062 -7.003906 39.171875 -6.023438 39.578125 -5.078125 C 37.796875 -3.109375 35.519531 -1.65625 32.75 -0.71875 C 29.976562 0.21875 26.945312 0.6875 23.65625 0.6875 Z M 23.65625 0.6875 "/></g></g></g></g></g></svg>